<?xml version="1.0" standalone="no"?>
<!DOCTYPE svg PUBLIC "-//W3C//DTD SVG 1.1//EN" "http://www.w3.org/Graphics/SVG/1.1/DTD/svg11.dtd">

<svg width="800" height="600" version="1.1" xmlns="http://www.w3.org/2000/svg">
	<ellipse stroke="black" stroke-width="1" fill="none" cx="93.5" cy="263.5" rx="30" ry="30"/>
	<text x="74.5" y="269.5" font-family="Times New Roman" font-size="20">Start</text>
	<ellipse stroke="black" stroke-width="1" fill="none" cx="348.5" cy="48.5" rx="30" ry="30"/>
	<text x="330.5" y="54.5" font-family="Times New Roman" font-size="20">p_gt</text>
	<ellipse stroke="black" stroke-width="1" fill="none" cx="607.5" cy="48.5" rx="30" ry="30"/>
	<text x="589.5" y="54.5" font-family="Times New Roman" font-size="20">goto</text>
	<ellipse stroke="black" stroke-width="1" fill="none" cx="607.5" cy="48.5" rx="24" ry="24"/>
	<ellipse stroke="black" stroke-width="1" fill="none" cx="348.5" cy="159.5" rx="30" ry="30"/>
	<text x="330.5" y="165.5" font-family="Times New Roman" font-size="20">p_df</text>
	<ellipse stroke="black" stroke-width="1" fill="none" cx="607.5" cy="159.5" rx="30" ry="30"/>
	<text x="583.5" y="165.5" font-family="Times New Roman" font-size="20">def fn</text>
	<ellipse stroke="black" stroke-width="1" fill="none" cx="607.5" cy="159.5" rx="24" ry="24"/>
	<ellipse stroke="black" stroke-width="1" fill="none" cx="348.5" cy="263.5" rx="30" ry="30"/>
	<text x="342.5" y="269.5" font-family="Times New Roman" font-size="20">&gt;</text>
	<ellipse stroke="black" stroke-width="1" fill="none" cx="607.5" cy="263.5" rx="30" ry="30"/>
	<text x="596.5" y="269.5" font-family="Times New Roman" font-size="20">&gt;=</text>
	<ellipse stroke="black" stroke-width="1" fill="none" cx="607.5" cy="263.5" rx="24" ry="24"/>
	<ellipse stroke="black" stroke-width="1" fill="none" cx="348.5" cy="390.5" rx="30" ry="30"/>
	<text x="342.5" y="396.5" font-family="Times New Roman" font-size="20">&lt;</text>
	<ellipse stroke="black" stroke-width="1" fill="none" cx="607.5" cy="390.5" rx="30" ry="30"/>
	<text x="596.5" y="396.5" font-family="Times New Roman" font-size="20">&lt;=</text>
	<ellipse stroke="black" stroke-width="1" fill="none" cx="607.5" cy="390.5" rx="24" ry="24"/>
	<ellipse stroke="black" stroke-width="1" fill="none" cx="607.5" cy="537.5" rx="30" ry="30"/>
	<text x="596.5" y="543.5" font-family="Times New Roman" font-size="20">&lt;&gt;</text>
	<ellipse stroke="black" stroke-width="1" fill="none" cx="607.5" cy="537.5" rx="24" ry="24"/>
	<ellipse stroke="black" stroke-width="1" fill="none" cx="348.5" cy="537.5" rx="30" ry="30"/>
	<text x="332.5" y="543.5" font-family="Times New Roman" font-size="20">rem</text>
	<ellipse stroke="black" stroke-width="1" fill="none" cx="348.5" cy="537.5" rx="24" ry="24"/>
	<polygon stroke="black" stroke-width="1" points="116.436,244.162 325.564,67.838"/>
	<polygon fill="black" stroke-width="1" points="325.564,67.838 316.225,69.172 322.671,76.817"/>
	<text x="226.5" y="176.5" font-family="Times New Roman" font-size="20">"GO"</text>
	<polygon stroke="black" stroke-width="1" points="378.5,48.5 577.5,48.5"/>
	<polygon fill="black" stroke-width="1" points="577.5,48.5 569.5,43.5 569.5,53.5"/>
	<text x="456.5" y="69.5" font-family="Times New Roman" font-size="20">"TO"</text>
	<polygon stroke="black" stroke-width="1" points="121.279,252.171 320.721,170.829"/>
	<polygon fill="black" stroke-width="1" points="320.721,170.829 311.426,169.221 315.202,178.48"/>
	<text x="224.5" y="233.5" font-family="Times New Roman" font-size="20">"DEF"</text>
	<polygon stroke="black" stroke-width="1" points="378.5,159.5 577.5,159.5"/>
	<polygon fill="black" stroke-width="1" points="577.5,159.5 569.5,154.5 569.5,164.5"/>
	<text x="457.5" y="180.5" font-family="Times New Roman" font-size="20">"FN"</text>
	<polygon stroke="black" stroke-width="1" points="123.5,263.5 318.5,263.5"/>
	<polygon fill="black" stroke-width="1" points="318.5,263.5 310.5,258.5 310.5,268.5"/>
	<text x="207.5" y="284.5" font-family="Times New Roman" font-size="20">"&gt;"</text>
	<polygon stroke="black" stroke-width="1" points="378.5,263.5 577.5,263.5"/>
	<polygon fill="black" stroke-width="1" points="577.5,263.5 569.5,258.5 569.5,268.5"/>
	<text x="458.5" y="284.5" font-family="Times New Roman" font-size="20">"&gt;="</text>
	<polygon stroke="black" stroke-width="1" points="120.354,276.874 321.646,377.126"/>
	<polygon fill="black" stroke-width="1" points="321.646,377.126 316.714,369.084 312.256,378.035"/>
	<text x="188.5" y="348.5" font-family="Times New Roman" font-size="20">"&lt;"</text>
	<polygon stroke="black" stroke-width="1" points="378.5,390.5 577.5,390.5"/>
	<polygon fill="black" stroke-width="1" points="577.5,390.5 569.5,385.5 569.5,395.5"/>
	<text x="458.5" y="411.5" font-family="Times New Roman" font-size="20">"&lt;="</text>
	<polygon stroke="black" stroke-width="1" points="374.591,405.308 581.409,522.692"/>
	<polygon fill="black" stroke-width="1" points="581.409,522.692 576.92,514.395 571.984,523.091"/>
	<text x="434.5" y="485.5" font-family="Times New Roman" font-size="20">"&lt;&gt;"</text>
	<polygon stroke="black" stroke-width="1" points="113.938,285.461 328.062,515.539"/>
	<polygon fill="black" stroke-width="1" points="328.062,515.539 326.272,506.276 318.952,513.089"/>
	<text x="156.5" y="421.5" font-family="Times New Roman" font-size="20">"REM"</text>
	<path stroke="black" stroke-width="1" fill="none" d="M 378.104,533.427 A 22.5,22.5 0 1 1 369.74,558.52"/>
	<text x="420.5" y="571.5" font-family="Times New Roman" font-size="20">*</text>
	<polygon fill="black" stroke-width="1" points="369.74,558.52 370.326,567.936 378.46,562.12"/>
</svg>

